<svg width="158" height="24" viewBox="0 0 158 24" fill="none" xmlns="http://www.w3.org/2000/svg">
<g clip-path="url(#clip0)">
<path d="M49.1026 17.3023C51.9377 17.3023 53.2541 15.2584 53.2541 15.2584L51.5327 13.5211C51.5327 13.5211 50.6214 14.7474 49.1026 14.7474C47.6851 14.7474 46.5713 13.6233 46.5713 12.0904C46.5713 10.5574 47.6851 9.4333 49.1026 9.4333C50.6214 9.4333 51.5327 10.6596 51.5327 10.6596L53.2541 8.92232C53.2541 8.92232 51.9377 6.87843 49.1026 6.87843C46.1663 6.87843 43.8374 9.22891 43.8374 12.0904C43.8374 14.9518 46.1663 17.3023 49.1026 17.3023ZM57.1777 17.0979V2.79065H54.4438V17.0979H57.1777ZM63.9364 17.3023C66.8728 17.3023 69.2016 14.9518 69.2016 12.0904C69.2016 9.22891 66.8728 6.87843 63.9364 6.87843C61 6.87843 58.6712 9.22891 58.6712 12.0904C58.6712 14.9518 61 17.3023 63.9364 17.3023ZM63.9364 14.7474C62.5188 14.7474 61.405 13.6233 61.405 12.0904C61.405 10.5574 62.5188 9.4333 63.9364 9.4333C65.3539 9.4333 66.4677 10.5574 66.4677 12.0904C66.4677 13.6233 65.3539 14.7474 63.9364 14.7474ZM74.239 17.3023C75.891 17.3023 76.871 16.0966 77.115 15.7559L77.1321 15.7317C77.1609 15.6905 77.1754 15.6672 77.1754 15.6672H77.2766V17.0979H80.0105V7.08282H77.2766V12.3969C77.2766 13.7255 76.3653 14.6452 75.1503 14.6452C74.0365 14.6452 73.3277 13.9299 73.3277 12.7035V7.08282H70.5939V13.1123C70.5939 15.6672 72.2139 17.3023 74.239 17.3023ZM85.8579 17.3023C87.9843 17.3023 88.9968 15.6672 88.9968 15.6672H89.0981V17.0979H91.8319V2.79065H89.0981V8.51355H88.9968C88.9968 8.51355 87.9843 6.87843 85.8579 6.87843C83.5291 6.87843 81.4028 9.02452 81.4028 12.0904C81.4028 15.1562 83.5291 17.3023 85.8579 17.3023ZM86.668 14.7474C85.2504 14.7474 84.1366 13.6233 84.1366 12.0904C84.1366 10.5574 85.2504 9.4333 86.668 9.4333C88.0855 9.4333 89.1993 10.5574 89.1993 12.0904C89.1993 13.6233 88.0855 14.7474 86.668 14.7474ZM98.5907 17.3023C101.426 17.3023 102.742 15.2584 102.742 15.2584L101.021 13.5211C101.021 13.5211 100.109 14.7474 98.5907 14.7474C97.1731 14.7474 96.0593 13.6233 96.0593 12.0904C96.0593 10.5574 97.1731 9.4333 98.5907 9.4333C100.109 9.4333 101.021 10.6596 101.021 10.6596L102.742 8.92232C102.742 8.92232 101.426 6.87843 98.5907 6.87843C95.6543 6.87843 93.3254 9.22891 93.3254 12.0904C93.3254 14.9518 95.6543 17.3023 98.5907 17.3023ZM106.362 17.3023C108.2 17.3023 109.207 15.9959 109.292 15.8798L109.298 15.8721C109.298 15.8717 109.298 15.8716 109.298 15.8716H109.4V17.0979H112.133V10.864C112.133 8.61574 110.412 6.87843 107.881 6.87843C105.248 6.87843 103.831 8.82013 103.831 8.82013L105.451 10.4552C105.451 10.4552 105.451 10.4544 105.452 10.4528L105.458 10.4457C105.54 10.337 106.337 9.3311 107.678 9.3311C108.691 9.3311 109.298 9.94427 109.4 10.6596L106.261 11.2319C104.438 11.5589 103.324 12.8057 103.324 14.4408C103.324 16.0759 104.539 17.3023 106.362 17.3023ZM107.273 15.054C106.463 15.054 106.058 14.6452 106.058 14.0321C106.058 13.5211 106.463 13.1327 107.172 13.0101L109.4 12.6013V12.8057C109.4 14.1342 108.488 15.054 107.273 15.054ZM116.867 17.0979V11.7838C116.867 10.4552 117.778 9.53549 118.993 9.53549C120.107 9.53549 120.816 10.2509 120.816 11.4772V17.0979H123.55V11.0684C123.55 8.51355 121.93 6.87843 119.905 6.87843C118.253 6.87843 117.273 8.0841 117.029 8.42483L117.012 8.44901C116.983 8.49017 116.968 8.51355 116.968 8.51355H116.867V7.08282H114.133V17.0979H116.867ZM128.283 17.0979V11.7838C128.283 10.4552 129.195 9.53549 130.41 9.53549C131.524 9.53549 132.232 10.2509 132.232 11.4772V17.0979H134.966V11.0684C134.966 8.51355 133.346 6.87843 131.321 6.87843C129.669 6.87843 128.689 8.0841 128.445 8.42483L128.428 8.44901C128.399 8.49017 128.385 8.51355 128.385 8.51355H128.283V7.08282H125.55V17.0979H128.283ZM141.624 17.3023C144.56 17.3023 146.889 14.9518 146.889 12.0904C146.889 9.22891 144.56 6.87843 141.624 6.87843C138.687 6.87843 136.359 9.22891 136.359 12.0904C136.359 14.9518 138.687 17.3023 141.624 17.3023ZM141.624 14.7474C140.206 14.7474 139.092 13.6233 139.092 12.0904C139.092 10.5574 140.206 9.4333 141.624 9.4333C143.041 9.4333 144.155 10.5574 144.155 12.0904C144.155 13.6233 143.041 14.7474 141.624 14.7474ZM151.015 17.0979V11.7838C151.015 10.4552 151.926 9.53549 153.141 9.53549C154.255 9.53549 154.964 10.2509 154.964 11.4772V17.0979H157.698V11.0684C157.698 8.51355 156.078 6.87843 154.053 6.87843C152.401 6.87843 151.421 8.0841 151.177 8.42483L151.16 8.44901C151.131 8.49017 151.116 8.51355 151.116 8.51355H151.015V7.08282H148.281V17.0979H151.015Z" fill="#034AD8"/>
<path d="M35.1205 10.8725C34.6946 8.34068 32.8254 6.31761 30.4 5.60776C30.4356 5.35931 30.471 5.11087 30.471 4.86242C30.471 2.24781 28.3534 0.130091 25.7387 0.130091C24.4138 0.130091 23.2307 0.674308 22.3669 1.54979C22.1303 0.922756 21.5388 0.473184 20.8289 0.473184C19.918 0.473184 19.1726 1.21853 19.1726 2.1295C19.1726 3.04047 19.7997 3.44272 21.1128 4.06975C21.2903 4.15257 21.4678 4.24722 21.6334 4.34186C21.7399 4.40102 21.8344 4.46017 21.941 4.51932C22.012 4.56665 22.0949 4.61397 22.1658 4.66129C22.2131 4.68496 22.2485 4.72045 22.2959 4.74411C22.6982 5.01622 23.0649 5.31199 23.4199 5.63142C23.4435 5.64325 23.4555 5.66691 23.479 5.67874C23.621 5.80888 23.7629 5.95085 23.8931 6.10465C23.9287 6.14015 23.9641 6.18747 23.9996 6.22296C24.1534 6.38859 24.2953 6.56606 24.4255 6.74352C25.5376 8.21054 26.2001 10.0443 26.2001 12.0201C26.2001 13.9958 25.5259 15.8296 24.4255 17.2966C24.2953 17.4741 24.1415 17.6397 23.9996 17.8172C23.964 17.8527 23.9286 17.8999 23.8931 17.9355C23.7629 18.0773 23.621 18.2194 23.479 18.3614C23.4555 18.3732 23.4435 18.397 23.4199 18.4087C23.0649 18.728 22.6982 19.0357 22.2959 19.296C22.2486 19.3196 22.2132 19.3552 22.1658 19.3787C22.0948 19.426 22.0238 19.4735 21.941 19.5208C21.8464 19.58 21.74 19.6391 21.6334 19.6983C21.4559 19.7928 21.2903 19.8876 21.1128 19.9703C19.7879 20.5856 19.1726 20.9878 19.1726 21.9105C19.1726 22.8215 19.918 23.5668 20.8289 23.5668C21.5388 23.5668 22.1303 23.1173 22.3669 22.4902C23.2307 23.3657 24.4255 23.9099 25.7387 23.9099C28.3534 23.9099 30.471 21.7922 30.471 19.1776C30.471 18.9173 30.4356 18.6807 30.4 18.4321C32.8254 17.7223 34.6827 15.6875 35.1205 13.1674C35.1797 12.8007 35.2151 12.4339 35.2151 12.0553C35.2151 11.606 35.1797 11.2274 35.1205 10.8725ZM14.4758 19.923C14.2983 19.8402 14.1208 19.7456 13.9552 19.6509C13.8487 19.5918 13.7541 19.5326 13.6476 19.4735C13.5766 19.4262 13.4938 19.3787 13.4228 19.3315C13.3755 19.3078 13.34 19.2724 13.2927 19.2487C12.8904 18.9885 12.5237 18.6808 12.1687 18.3614C12.1451 18.3496 12.1332 18.3259 12.1096 18.3141C11.9676 18.1722 11.8256 18.0421 11.6955 17.8881C11.66 17.8527 11.6245 17.8055 11.589 17.7698C11.4352 17.6042 11.2933 17.4267 11.1631 17.2493C10.051 15.7824 9.3885 13.9486 9.3885 11.9729C9.3885 9.99711 10.0629 8.16333 11.1631 6.69631C11.2933 6.51885 11.4471 6.35322 11.589 6.17576C11.6245 6.14026 11.66 6.09294 11.6955 6.05745C11.8256 5.91548 11.9676 5.77351 12.1096 5.63154C12.1332 5.61971 12.1451 5.59605 12.1687 5.58422C12.5237 5.26478 12.8904 4.95718 13.2927 4.6969C13.34 4.67324 13.3755 4.63775 13.4228 4.61409C13.4938 4.56677 13.5648 4.51944 13.6476 4.47212C13.7422 4.41297 13.8487 4.35381 13.9552 4.29466C14.1327 4.20001 14.2983 4.10536 14.4758 4.02255C15.8008 3.40735 16.416 3.0051 16.416 2.08229C16.416 1.17132 15.6707 0.425979 14.7597 0.425979C14.0498 0.425979 13.4583 0.875551 13.2217 1.50258C12.358 0.627104 11.1631 0.0828857 9.8499 0.0828857C7.23529 0.0828857 5.11757 2.2006 5.11757 4.81521C5.11757 5.07549 5.15307 5.31211 5.18856 5.56055C2.76324 6.2704 0.9058 8.3053 0.46806 10.8253C0.408906 11.192 0.373413 11.5588 0.373413 11.9374C0.373413 12.316 0.408906 12.6827 0.46806 13.0495C0.893969 15.5813 2.76324 17.6043 5.18856 18.3142C5.15307 18.5625 5.11757 18.811 5.11757 19.0594C5.11757 21.674 7.23529 23.7917 9.8499 23.7917C11.175 23.7917 12.358 23.2475 13.2217 22.372C13.4583 22.9991 14.0498 23.4486 14.7597 23.4486C15.6707 23.4486 16.416 22.7033 16.416 21.7923C16.416 20.9405 15.8008 20.5383 14.4758 19.923Z" fill="#034AD8"/>
<path d="M22.9586 11.9845C22.9586 9.1333 20.6516 6.82629 17.8003 6.82629C14.9491 6.82629 12.6421 9.1333 12.6421 11.9845C12.6421 14.8358 14.9491 17.1428 17.8003 17.1428C20.6516 17.1428 22.9586 14.8358 22.9586 11.9845Z" fill="#034AD8"/>
</g>
<defs>
<clipPath id="clip0">
<rect width="157.395" height="24" fill="white" transform="translate(0.302368)"/>
</clipPath>
</defs>
</svg>
