<svg width="586" height="390" viewBox="0 0 586 390" fill="none" xmlns="http://www.w3.org/2000/svg">
<g clip-path="url(#clip0)">
<rect width="585" height="390" transform="translate(0.561523)" fill="url(#paint0_linear)"/>
<path d="M200.14 291.666C217.174 270.785 237.002 279.15 244.787 285.942L240.665 367.68H145.189L169.001 298.535C178.343 299.634 185.868 311.051 188.463 316.623C188.463 308.746 196.247 296.703 200.14 291.666Z" fill="#BAD1A2"/>
<path d="M56.7173 161.985C56.2389 159.353 52.3756 144.69 40.7497 107.085C29.2044 69.7408 9.39037 59.3851 0.740935 58.8334V200.379L56.7173 161.985Z" fill="#BBD2A3"/>
<path d="M270.452 248.171C220.618 246.071 211.893 326.969 213.759 367.68H368.97C368.97 367.68 379.277 359.924 365.877 329.518C352.478 299.111 334.318 292.965 334.318 292.965C319.2 278.267 302.123 286.841 295.473 292.965C296.033 260.769 279.026 249.687 270.452 248.171Z" fill="#D4E7C0"/>
<path d="M164.038 221.23C154.554 212.338 137.981 230.122 130.88 240.125L125.322 285.325L134.77 294.587L168.114 279.953C170.707 264.083 173.523 230.122 164.038 221.23Z" fill="#BBD2A3"/>
<path d="M122.023 85.1015C66.422 68.4212 17.8816 132.539 0.561523 166.682V369.063H200.294L200.46 368.732C208.005 348.345 207.686 330.561 206.582 324.218C199.698 276.428 155.725 266.135 134.599 266.962C153.574 213.292 177.624 101.782 122.023 85.1015Z" fill="#D4E7C0"/>
<path d="M602.814 58.992C596.833 51.9944 588.185 51.065 584.608 51.475L578.68 60.339C603.771 56.7978 606.101 84.9333 604.13 99.4438L616.7 115.125C622.045 80.2728 610.291 67.739 602.814 58.992Z" fill="#142F34"/>
<path d="M575.817 72.1547C574.679 61.2121 583.832 53.86 588.55 51.5518C581.553 50.3334 573.834 55.4864 570.85 58.2151C564.747 66.7068 564.556 73.3979 565.223 75.6819L575.817 72.1547Z" fill="#A65D45"/>
<ellipse rx="53.5425" ry="15.0283" transform="matrix(-0.780261 0.625455 0.625455 0.780261 586.432 172.347)" fill="#A25941"/>
<ellipse rx="53.5425" ry="15.0283" transform="matrix(-0.780261 0.625454 0.625455 0.78026 584.569 169.552)" fill="#CA6949"/>
<path fill-rule="evenodd" clip-rule="evenodd" d="M480.936 129.836C481.923 131.068 483.308 131.923 485.029 132.425L508.894 162.197L482.025 160.616C480.83 160.255 477.977 158.973 476.122 156.736C476.035 156.631 475.949 156.582 475.864 156.584C472.881 151.231 468.23 147.663 462.798 147.28C452.714 146.568 443.755 157.099 442.788 170.801C441.82 184.504 449.21 196.19 459.294 196.902C466.257 197.393 472.683 192.525 476.313 184.953C478.183 183.216 480.191 181.881 481.526 182.351L532.414 189.893L542.788 202.835L626.342 135.858L569.386 64.8044C569.27 63.0158 568.737 61.4782 567.75 60.2471C561.079 51.9258 536.238 60.7581 512.265 79.9746C488.292 99.1911 474.266 121.515 480.936 129.836Z" fill="#CA6949"/>
<ellipse rx="53.3306" ry="16.6469" transform="matrix(-0.780261 0.625455 0.625455 0.780261 523.813 94.38)" fill="#142F34"/>
<ellipse rx="0.888866" ry="1.16451" transform="matrix(0.993891 0.110367 -0.110368 0.993891 454.729 154.031)" fill="#3F3F3F"/>
<ellipse rx="0.888866" ry="1.16451" transform="matrix(0.993891 0.110367 -0.110368 0.993891 461.177 152.971)" fill="#3F3F3F"/>
<ellipse rx="0.888866" ry="1.16451" transform="matrix(0.993891 0.110367 -0.110368 0.993891 467.355 155.482)" fill="#3F3F3F"/>
<ellipse cx="470.23" cy="164.749" rx="0.888866" ry="1.16451" transform="rotate(6.33647 470.23 164.749)" fill="#3F3F3F"/>
<ellipse cx="470.23" cy="174.843" rx="0.888866" ry="1.16451" transform="rotate(6.33647 470.23 174.843)" fill="#3F3F3F"/>
<ellipse rx="0.888866" ry="1.16451" transform="matrix(0.993891 0.110367 -0.110368 0.993891 467.611 184.876)" fill="#3F3F3F"/>
<ellipse rx="0.888866" ry="1.16451" transform="matrix(0.993891 0.110367 -0.110368 0.993891 461.434 189.123)" fill="#3F3F3F"/>
<ellipse rx="0.888866" ry="1.16451" transform="matrix(0.993891 0.110367 -0.110368 0.993891 453.974 187.387)" fill="#3F3F3F"/>
<ellipse rx="0.888866" ry="1.16451" transform="matrix(0.993891 0.110367 -0.110368 0.993891 449.295 179.508)" fill="#3F3F3F"/>
<ellipse rx="0.888866" ry="1.16451" transform="matrix(0.993891 0.110367 -0.110368 0.993891 448.283 171.569)" fill="#3F3F3F"/>
<ellipse rx="0.888866" ry="1.16451" transform="matrix(0.993891 0.110367 -0.110368 0.993891 449.552 162.238)" fill="#3F3F3F"/>
<ellipse rx="0.888866" ry="1.16451" transform="matrix(0.993891 0.110367 -0.110368 0.993891 456.752 159.922)" fill="#3F3F3F"/>
<ellipse rx="0.888866" ry="1.16451" transform="matrix(0.993891 0.110368 -0.110366 0.993891 464.507 161.178)" fill="#3F3F3F"/>
<ellipse rx="0.888866" ry="1.16451" transform="matrix(0.993891 0.110369 -0.110365 0.993891 464.507 170.313)" fill="#3F3F3F"/>
<ellipse cx="463.2" cy="179.508" rx="0.888866" ry="1.16451" transform="rotate(6.33647 463.2 179.508)" fill="#3F3F3F"/>
<ellipse cx="455.483" cy="179.313" rx="0.888866" ry="1.16451" transform="rotate(6.33647 455.483 179.313)" fill="#3F3F3F"/>
<ellipse rx="0.888866" ry="1.16451" transform="matrix(0.993891 0.110367 -0.110368 0.993891 454.23 167.999)" fill="#3F3F3F"/>
<ellipse cx="459.667" cy="171.047" rx="0.888866" ry="1.16451" transform="rotate(6.33647 459.667 171.047)" fill="#3F3F3F"/>
<path d="M454.478 160.369C427.056 160.369 370.386 181.856 346.555 227.76" stroke="#8FC3FF" stroke-width="2.00778" stroke-linejoin="round" stroke-dasharray="35.14 3.01"/>
<path d="M452.038 176.825C423.382 181.336 343.757 225.872 322.163 290.653" stroke="#8FC3FF" stroke-width="2.00778" stroke-linejoin="round" stroke-dasharray="35.14 3.01"/>
<path d="M460.613 153.257C416.793 154.228 366.529 170.517 342.698 216.421" stroke="#8FC3FF" stroke-width="2.00778" stroke-linejoin="round" stroke-dasharray="35.14 3.01"/>
<path d="M464.636 163.665C432.831 163.665 394.068 184.818 387.274 196.807" stroke="#8FC3FF" stroke-width="2.00778" stroke-linejoin="round" stroke-dasharray="35.14 3.01"/>
<path d="M469.281 167.302C443.236 170.639 361.121 198.821 354.331 265.295" stroke="#8FC3FF" stroke-width="2.00778" stroke-linejoin="round" stroke-dasharray="35.14 3.01"/>
<path d="M469.281 177.939C425.808 184.166 363.623 230.984 363.623 268.51" stroke="#8FC3FF" stroke-width="2.00778" stroke-linejoin="round" stroke-dasharray="35.14 3.01"/>
<path d="M465.44 185.456C435.282 189.536 396.029 226.031 379.705 263.507" stroke="#8FC3FF" stroke-width="2.00778" stroke-linejoin="round" stroke-dasharray="35.14 3.01"/>
<ellipse rx="3.30918" ry="0.75602" transform="matrix(0.769287 0.638903 -0.638905 0.769286 381.218 195.981)" fill="#93DDFF"/>
<ellipse cx="396.119" cy="194.178" rx="3.30918" ry="0.75602" transform="rotate(160.781 396.119 194.178)" fill="#93DDFF"/>
<ellipse rx="2.60573" ry="0.287447" transform="matrix(-0.388394 -0.921493 0.921492 -0.388397 388.409 206.016)" fill="#93DDFF"/>
<path fill-rule="evenodd" clip-rule="evenodd" d="M61.3259 298.873C61.441 298.708 61.4005 298.481 61.2354 298.365C61.0704 298.25 60.8432 298.291 60.728 298.456C58.8597 301.134 54.5708 309.99 51.7712 324.588C49.7953 317.645 45.1854 310.141 43.0271 307.126C42.9099 306.963 42.6822 306.925 42.5185 307.042C42.3549 307.159 42.3172 307.387 42.4344 307.551C44.6904 310.702 49.6277 318.78 51.3607 325.885C51.4084 326.081 51.6056 326.201 51.8012 326.153C51.8058 326.152 51.8104 326.151 51.815 326.149C51.8264 326.153 51.838 326.155 51.8498 326.157C52.0478 326.194 52.2376 326.062 52.2738 325.864C55.0526 310.646 59.4885 301.507 61.3259 298.873Z" fill="#6DA032"/>
<path d="M30.7765 304.167C26.7819 300.61 26.6215 292.468 27.0407 288.842C27.0974 288.258 27.9269 288.088 28.3345 288.076C33.0908 288.076 38.084 291.593 42.4941 297.443C46.0221 302.123 44.7659 307.241 43.6968 309.215C41.0544 309.015 34.771 307.725 30.7765 304.167Z" fill="#6DA032"/>
<path fill-rule="evenodd" clip-rule="evenodd" d="M29.0216 290.394C29.0902 290.32 29.2055 290.316 29.2791 290.385C31.0176 292.005 33.7749 294.771 36.4012 297.81C39.0244 300.846 41.5302 304.169 42.7518 306.899C42.7929 306.991 42.7518 307.099 42.6599 307.14C42.5681 307.181 42.4603 307.14 42.4192 307.048C41.2207 304.37 38.7455 301.081 36.1255 298.049C33.5087 295.02 30.7607 292.263 29.0307 290.652C28.957 290.583 28.953 290.468 29.0216 290.394Z" fill="#BABF3F"/>
<path d="M64.0701 285.452C67.7148 280.641 77.0208 278.649 81.2183 278.254C81.5524 278.211 82.2934 278.287 82.585 278.928C82.9738 279.39 83.3468 281.906 81.7285 288.277C80.1103 294.648 72.4285 299.788 68.79 301.561C66.184 301.999 60.7389 302.236 59.8058 299.684C58.6395 296.495 59.5143 291.466 64.0701 285.452Z" fill="#6DA032"/>
<path fill-rule="evenodd" clip-rule="evenodd" d="M79.3706 281.759C79.398 281.856 79.3417 281.956 79.2448 281.984C74.7776 283.247 70.9495 286.25 67.9753 289.505C65.0019 292.76 62.8944 296.252 61.8661 298.468C61.8238 298.559 61.7154 298.599 61.6241 298.557C61.5328 298.514 61.4932 298.406 61.5355 298.315C62.5786 296.066 64.7063 292.543 67.7062 289.259C70.7053 285.977 74.5887 282.921 79.1457 281.633C79.2425 281.606 79.3432 281.662 79.3706 281.759Z" fill="#BABF3F"/>
<path d="M21.2633 268.539C21.2646 268.62 21.2651 268.704 21.2647 268.79C21.332 274.547 23.7103 276.115 24.908 276.175C22.0505 276.175 21.2876 281.787 21.2633 284.594C21.2633 277.887 18.6412 276.202 17.1744 276.17C17.1167 276.173 17.0582 276.175 16.999 276.175C17.0553 276.171 17.1139 276.169 17.1744 276.17C20.4298 276.009 21.2526 271.358 21.2647 268.79C21.2638 268.707 21.2633 268.624 21.2633 268.539Z" fill="#FFC741"/>
<path d="M34.0561 276.886C34.0561 277.621 33.4605 278.216 32.7258 278.216C31.9911 278.216 31.3955 277.621 31.3955 276.886C31.3955 276.151 31.9911 275.556 32.7258 275.556C33.4605 275.556 34.0561 276.151 34.0561 276.886Z" fill="#FFC741"/>
<path d="M79.9056 309.05C79.9056 309.594 79.465 310.035 78.9216 310.035C78.3781 310.035 77.9375 309.594 77.9375 309.05C77.9375 308.507 78.3781 308.066 78.9216 308.066C79.465 308.066 79.9056 308.507 79.9056 309.05Z" fill="#FFC741"/>
<path d="M86.0283 295.145C86.0283 294.934 86.1997 294.763 86.411 294.763C86.6224 294.763 86.7937 294.934 86.7937 295.145V299.41C86.7937 299.621 86.6224 299.792 86.411 299.792C86.1997 299.792 86.0283 299.621 86.0283 299.41V295.145Z" fill="#FFC844"/>
<path d="M85.2091 300.229C85.4205 300.229 85.5918 300.401 85.5918 300.612C85.5918 300.824 85.4205 300.995 85.2091 300.995L83.0588 300.995C82.8474 300.995 82.6761 300.824 82.6761 300.612C82.6761 300.401 82.8474 300.229 83.0588 300.229L85.2091 300.229Z" fill="#FFC844"/>
<path d="M89.7638 300.229C89.9751 300.229 90.1465 300.401 90.1465 300.612C90.1465 300.824 89.9751 300.995 89.7638 300.995L87.6134 300.995C87.4021 300.995 87.2308 300.824 87.2308 300.612C87.2308 300.401 87.4021 300.229 87.6134 300.229L89.7638 300.229Z" fill="#FFC844"/>
<path d="M86.0283 301.814C86.0283 301.603 86.1997 301.432 86.411 301.432C86.6224 301.432 86.7937 301.603 86.7937 301.814V307.281C86.7937 307.493 86.6224 307.664 86.411 307.664C86.1997 307.664 86.0283 307.493 86.0283 307.281V301.814Z" fill="#FFC844"/>
<path d="M74.7618 324.366H26.6367L31.7193 362.743H69.0891L74.7618 324.366Z" fill="#CD6A4A"/>
<path d="M71.5514 354.125H29.627L31.4615 362.779H69.2397L71.5514 354.125Z" fill="#8F4932"/>
<path d="M27.4014 332.304H73.928L73.6253 336.401H27.6078L27.4014 332.304Z" fill="#8F4932"/>
<path d="M153.326 231.621C135.939 230.754 130.223 215.841 129.539 208.493C129.143 206.076 131.595 205.781 132.871 205.936C156.301 208.881 157.871 224.287 155.728 231.621H153.326Z" fill="#6DA032"/>
<path fill-rule="evenodd" clip-rule="evenodd" d="M134.406 209.713C134.566 209.512 134.859 209.48 135.059 209.64C137.359 211.48 141.056 214.594 144.68 217.965C148.297 221.328 151.87 224.972 153.9 227.867C154.047 228.077 153.996 228.367 153.786 228.514C153.576 228.662 153.286 228.611 153.138 228.4C151.17 225.592 147.66 222.005 144.047 218.646C140.442 215.293 136.762 212.193 134.478 210.366C134.278 210.206 134.245 209.913 134.406 209.713Z" fill="#BBBF3F"/>
<path d="M183.833 198.187C187.335 183.466 201.899 180.302 208.743 180.56C210.107 180.622 210.37 183.582 210.331 185.054C210.3 197.699 199.187 205.819 193.634 208.298C191.413 208.88 186.49 209.499 184.569 207.33C182.647 205.16 183.277 200.331 183.833 198.187Z" fill="#6DA032"/>
<path fill-rule="evenodd" clip-rule="evenodd" d="M207.481 183.395C207.691 183.543 207.741 183.833 207.594 184.043C205.463 187.074 201.924 191.793 198.229 196.107C196.381 198.264 194.49 200.325 192.711 202.024C190.94 203.717 189.255 205.078 187.821 205.807C187.592 205.924 187.312 205.832 187.196 205.603C187.08 205.375 187.171 205.095 187.4 204.978C188.709 204.313 190.314 203.03 192.069 201.352C193.817 199.681 195.687 197.645 197.523 195.502C201.195 191.215 204.715 186.52 206.833 183.508C206.981 183.298 207.271 183.248 207.481 183.395Z" fill="#BBBF3F"/>
<path d="M207.175 216.719C192.299 213.465 185.248 220.167 183.582 223.925C183.582 226.435 186.32 228.767 187.689 229.62C194.228 233.463 202.836 231.221 206.323 229.62C210.029 228.005 217.193 224.204 216.202 221.91C215.21 219.617 209.771 217.494 207.175 216.719Z" fill="#6DA032"/>
<path fill-rule="evenodd" clip-rule="evenodd" d="M211.701 223.052C201.659 221.21 191.534 223.132 187.749 224.317C187.504 224.394 187.244 224.258 187.167 224.013C187.09 223.768 187.227 223.507 187.472 223.43C191.358 222.213 201.641 220.261 211.869 222.138C212.121 222.184 212.288 222.427 212.242 222.679C212.196 222.932 211.953 223.099 211.701 223.052Z" fill="#BBBF3F"/>
<path d="M174.025 262.264C170.182 249.743 174.903 242.842 177.744 240.957C178.519 240.058 180.753 241.951 181.773 243.01C187.971 249.209 185.363 258.997 183.284 263.116C182.573 264.124 180.626 266.138 178.519 266.138C176.411 266.138 174.644 263.556 174.025 262.264Z" fill="#6DA032"/>
<path fill-rule="evenodd" clip-rule="evenodd" d="M179.028 245.955C179.284 245.943 179.502 246.141 179.513 246.398C179.617 248.655 179.741 252.153 179.777 255.313C179.795 256.893 179.792 258.393 179.752 259.613C179.713 260.812 179.638 261.798 179.497 262.31C179.429 262.558 179.173 262.703 178.925 262.635C178.678 262.566 178.533 262.31 178.601 262.063C178.707 261.676 178.783 260.806 178.823 259.583C178.862 258.383 178.866 256.898 178.848 255.324C178.811 252.177 178.688 248.69 178.585 246.44C178.573 246.184 178.771 245.966 179.028 245.955Z" fill="#BBBF3F"/>
<path d="M188.034 254.668C194.791 241.837 209.884 240.747 216.586 241.806C218.817 242.24 217.309 247.669 216.276 250.329C212.619 260.371 202.304 264.508 197.603 265.322C194.078 265.645 186.802 265.856 185.903 264.121C185.005 262.385 186.949 257.096 188.034 254.668Z" fill="#6DA032"/>
<path fill-rule="evenodd" clip-rule="evenodd" d="M214.61 244.675C214.717 244.908 214.615 245.185 214.382 245.292C210.968 246.861 205.603 249.604 200.617 252.729C198.124 254.291 195.733 255.944 193.73 257.589C191.721 259.24 190.129 260.86 189.208 262.353C189.073 262.571 188.787 262.639 188.569 262.505C188.35 262.37 188.282 262.083 188.417 261.865C189.418 260.243 191.102 258.545 193.139 256.871C195.183 255.192 197.61 253.516 200.123 251.941C205.149 248.791 210.551 246.029 213.994 244.447C214.227 244.34 214.503 244.442 214.61 244.675Z" fill="#BBBF3F"/>
<path d="M133.476 258.971C152.784 260.49 158.851 273.421 159.471 279.697C157.27 282.642 149.824 281.931 146.376 281.208C130.415 276.985 128.478 267.339 127.432 262.574C126.595 258.762 131.112 258.584 133.476 258.971Z" fill="#6DA032"/>
<path fill-rule="evenodd" clip-rule="evenodd" d="M131.778 263.142C131.871 262.903 132.141 262.784 132.38 262.878C135.034 263.912 139.389 265.87 143.853 268.391C148.31 270.908 152.911 274.006 156.027 277.327C156.203 277.514 156.193 277.808 156.006 277.984C155.819 278.159 155.525 278.15 155.349 277.963C152.329 274.744 147.825 271.702 143.395 269.2C138.972 266.702 134.657 264.763 132.042 263.744C131.803 263.651 131.685 263.381 131.778 263.142Z" fill="#BBBF3F"/>
<path fill-rule="evenodd" clip-rule="evenodd" d="M160.885 241.529C164.409 251.711 167.776 267.196 167.776 287.29V287.302L167.501 294.65C169.165 288.004 172.106 281.984 175.346 276.933C175.99 275.679 176.595 273.729 177.104 271.645C177.695 269.23 178.135 266.738 178.359 265.185L179.585 265.367C179.357 266.952 178.91 269.485 178.308 271.947C178.218 272.315 178.124 272.684 178.026 273.05C181.426 268.454 184.863 264.965 187.296 262.947L188.081 263.918C185.077 266.411 180.504 271.208 176.414 277.573C176.292 277.807 176.167 278.022 176.04 278.216L176.016 278.2C171.893 284.773 170.845 287.907 168.356 296.56C168.011 296.528 166.355 296.56 166.355 296.56L166.432 290.054L166.407 290.061C165.731 287.77 164.217 285.579 162.56 283.754C160.907 281.933 159.152 280.521 158.055 279.786L158.746 278.756C159.923 279.545 161.755 281.023 163.477 282.92C163.98 283.474 164.477 284.067 164.947 284.693C161.766 267.135 155.391 255.702 152.569 252.151C152.356 251.883 152.401 251.493 152.669 251.28C152.937 251.067 153.327 251.112 153.54 251.38C156.612 255.247 163.407 267.564 166.489 286.338C166.519 286.522 166.465 286.7 166.355 286.834C166.417 286.943 166.477 287.053 166.536 287.164C166.514 255.993 158.338 236.144 154.322 230.184C154.131 229.901 154.206 229.515 154.49 229.324C154.774 229.133 155.159 229.208 155.351 229.492C156.498 231.195 157.949 233.942 159.45 237.679C158.873 223.026 161.905 207.886 163.576 201.895L164.77 202.228C163.105 208.197 160.061 223.434 160.706 238.043C163.264 231.11 167.464 224.831 171.838 219.669C176.891 213.706 182.208 209.2 185.579 206.865L186.294 207.902C183.014 210.173 177.779 214.605 172.796 220.485C170.398 223.314 168.065 226.471 166.038 229.876C166.553 229.589 167.114 229.311 167.707 229.042C169.413 228.268 171.453 227.537 173.569 226.876C177.802 225.553 182.388 224.494 185.323 223.922L185.56 225.139C182.658 225.704 178.118 226.753 173.938 228.059C171.848 228.712 169.861 229.426 168.219 230.171C166.558 230.925 165.322 231.68 164.667 232.389L164.639 232.363C163.093 235.276 161.796 238.347 160.885 241.529Z" fill="#6DA032"/>
<path d="M155.998 246.651C155.998 251.123 152.373 254.748 147.901 254.748C143.43 254.748 139.805 251.123 139.805 246.651C139.805 242.18 143.43 238.555 147.901 238.555C152.373 238.555 155.998 242.18 155.998 246.651Z" fill="#FFC741"/>
<path d="M173.199 193.693C173.199 198.999 168.897 203.3 163.591 203.3C158.285 203.3 153.983 198.999 153.983 193.693C153.983 188.386 158.285 184.085 163.591 184.085C168.897 184.085 173.199 188.386 173.199 193.693Z" fill="#FFC741"/>
<path d="M106.514 187.066C110.741 187.01 112.081 181.293 112.223 178.428C112.223 184.161 115.322 186.576 116.871 187.067C113.152 187.067 112.225 194.767 112.222 198.71C112.223 198.741 112.223 198.773 112.223 198.805C112.222 198.774 112.222 198.742 112.222 198.71C112.197 189.409 108.451 187.079 106.514 187.066C106.493 187.067 106.472 187.067 106.45 187.067C106.471 187.066 106.492 187.066 106.514 187.066Z" fill="#FFE4A3"/>
<path d="M102.15 212.984C102.15 213.84 101.456 214.534 100.6 214.534C99.7446 214.534 99.0508 213.84 99.0508 212.984C99.0508 212.128 99.7446 211.435 100.6 211.435C101.456 211.435 102.15 212.128 102.15 212.984Z" fill="#FFE4A3"/>
<path fill-rule="evenodd" clip-rule="evenodd" d="M233.403 194.31C233.146 194.31 232.938 194.518 232.938 194.774V200.083L230.061 197.206C229.88 197.024 229.585 197.024 229.404 197.206C229.222 197.387 229.222 197.682 229.404 197.863L232.281 200.741H228.212C227.955 200.741 227.747 200.949 227.747 201.205C227.747 201.462 227.955 201.67 228.212 201.67H232.259L229.393 204.537C229.211 204.718 229.211 205.013 229.393 205.194C229.575 205.376 229.869 205.376 230.05 205.194L232.938 202.306V207.714C232.938 207.971 233.146 208.179 233.403 208.179C233.66 208.179 233.868 207.971 233.868 207.714V202.328L236.745 205.205C236.927 205.386 237.221 205.386 237.403 205.205C237.584 205.023 237.584 204.729 237.403 204.547L234.526 201.67H238.594C238.851 201.67 239.059 201.462 239.059 201.205C239.059 200.949 238.851 200.741 238.594 200.741H234.504L237.392 197.853C237.574 197.671 237.574 197.377 237.392 197.195C237.21 197.014 236.916 197.014 236.735 197.195L233.868 200.062V194.774C233.868 194.518 233.66 194.31 233.403 194.31Z" fill="#FFE4A3"/>
<path d="M248.591 215.27C248.591 216.019 247.984 216.626 247.235 216.626C246.486 216.626 245.879 216.019 245.879 215.27C245.879 214.521 246.486 213.914 247.235 213.914C247.984 213.914 248.591 214.521 248.591 215.27Z" fill="#FFE4A3"/>
<path d="M211.756 296.504H123.274L132.619 367.062H201.326L211.756 296.504Z" fill="#CD6A4A"/>
<path d="M205.854 351.215H128.772L132.145 367.125H201.603L205.854 351.215Z" fill="#8F4932"/>
<path d="M124.681 311.094H210.223L209.667 314.552H125.06L124.681 311.094Z" fill="#8F4932"/>
<path d="M457.864 261.551H255.414C259.963 319.846 301.027 368.224 301.027 368.224H404.901C404.901 368.224 457.864 322.106 457.864 261.551Z" fill="#CD6A4A"/>
<path d="M435.623 344.267H275.138C275.138 344.267 279.394 361.331 288.566 368.32C297.738 375.31 411.989 373.663 420.839 368.32C429.688 362.978 435.623 344.267 435.623 344.267Z" fill="#8F4932"/>
<path d="M258.844 283.608H455.403L454.435 288.919H260.069L258.844 283.608Z" fill="#8F4932"/>
<path fill-rule="evenodd" clip-rule="evenodd" d="M343.379 261.113C340.95 251.604 337.011 246.215 335.465 244.782L336.618 243.539C338.463 245.25 342.535 250.959 345.022 260.693L343.379 261.113Z" fill="#71A233"/>
<path d="M274.416 248.172C269.654 233.927 255.934 232.644 249.67 233.784C247.569 234.017 247.894 236.123 248.32 237.146C256.213 255.93 269.379 253.654 274.975 250.167L274.416 248.172Z" fill="#6DA032"/>
<path fill-rule="evenodd" clip-rule="evenodd" d="M251.815 237.544C251.686 237.724 251.727 237.975 251.907 238.104C253.97 239.587 257.418 241.935 261.06 244.163C264.696 246.386 268.554 248.508 271.431 249.522C271.64 249.595 271.869 249.485 271.943 249.276C272.016 249.067 271.907 248.838 271.698 248.765C268.907 247.782 265.11 245.699 261.479 243.479C257.855 241.262 254.424 238.926 252.375 237.453C252.195 237.323 251.944 237.364 251.815 237.544Z" fill="#BBBF3F"/>
<path fill-rule="evenodd" clip-rule="evenodd" d="M276.596 261.55C276.096 254.875 274.233 250.27 273.424 248.879L274.89 248.026C275.847 249.673 277.77 254.534 278.287 261.423L276.596 261.55Z" fill="#71A233"/>
<path d="M268.504 243.759C264.227 224.875 271.951 215.224 276.348 212.76C277.59 211.521 280.674 214.559 282.06 216.233C290.511 226.058 285.581 240.199 282.06 246.042C280.901 247.448 277.807 250.202 274.7 249.968C271.593 249.735 269.275 245.732 268.504 243.759Z" fill="#6DA032"/>
<path fill-rule="evenodd" clip-rule="evenodd" d="M277.688 220.271C278.068 220.282 278.366 220.598 278.355 220.978C278.258 224.316 278.053 229.487 277.756 234.15C277.608 236.482 277.436 238.692 277.242 240.487C277.052 242.249 276.833 243.694 276.568 244.434C276.44 244.791 276.046 244.977 275.689 244.849C275.332 244.721 275.146 244.327 275.274 243.97C275.474 243.412 275.682 242.137 275.876 240.339C276.066 238.574 276.237 236.385 276.384 234.063C276.68 229.42 276.884 224.266 276.981 220.938C276.992 220.558 277.309 220.26 277.688 220.271Z" fill="#BBBF3F"/>
<path d="M313.754 210.998C336.149 219.563 338.824 237.042 337.362 244.711C333.718 247.436 325.126 243.985 321.285 241.919C303.812 231.316 304.89 219.184 305.317 213.16C305.658 208.34 311.084 209.711 313.754 210.998Z" fill="#6DA032"/>
<path fill-rule="evenodd" clip-rule="evenodd" d="M310.279 215.355C310.473 215.104 310.835 215.057 311.086 215.252C313.875 217.409 318.361 221.259 322.778 225.816C327.189 230.365 331.567 235.654 334.104 240.689C334.247 240.973 334.133 241.319 333.849 241.462C333.565 241.605 333.219 241.491 333.076 241.207C330.617 236.328 326.335 231.138 321.952 226.617C317.574 222.102 313.13 218.288 310.382 216.162C310.131 215.968 310.084 215.606 310.279 215.355Z" fill="#BBBF3F"/>
<path d="M326.941 153.317C306.191 154.885 297.184 138.053 295.275 129.441C294.444 126.633 297.308 125.917 298.844 125.91C327.072 125.902 331.236 143.939 329.79 152.958L326.941 153.317Z" fill="#6DA032"/>
<path fill-rule="evenodd" clip-rule="evenodd" d="M301.229 130.161C301.389 129.9 301.731 129.817 301.993 129.978C304.996 131.816 309.846 134.958 314.647 138.413C319.44 141.862 324.222 145.65 327.061 148.78C327.267 149.007 327.25 149.359 327.023 149.565C326.796 149.771 326.444 149.754 326.238 149.527C323.484 146.491 318.785 142.76 313.998 139.316C309.221 135.878 304.395 132.752 301.413 130.926C301.151 130.765 301.069 130.423 301.229 130.161Z" fill="#BBBF3F"/>
<path fill-rule="evenodd" clip-rule="evenodd" d="M339.298 116.366C337.737 122.065 335.872 131.774 335.328 142.444C335.024 148.399 335.13 154.68 335.941 160.744C333.377 157.103 330.104 153.311 328.5 151.568L327.252 152.716C329.275 154.915 333.912 160.335 336.365 164.493L336.523 164.4C337.174 167.895 338.088 171.278 339.326 174.438C342.493 182.528 344.575 192.603 345.826 203.286C342.49 200.058 337.488 197.459 332.464 195.476C326.534 193.134 320.419 191.592 316.585 190.886L316.278 192.553C320.021 193.243 326.028 194.757 331.842 197.053C337.69 199.362 343.189 202.403 346.071 206.072L346.128 206.028C346.532 209.941 346.828 213.919 347.03 217.897C347.836 233.744 347.136 249.498 345.738 260.918L347.42 261.124C347.831 257.771 348.182 254.05 348.452 250.068L348.552 250.1C351.43 241.092 358.795 230.388 362.133 226.154L360.801 225.104C357.988 228.672 352.291 236.846 348.753 244.858C349.096 237.65 349.178 229.796 348.897 221.829L349.069 221.833C349.098 220.557 349.576 218.508 350.389 215.949C351.193 213.417 352.298 210.469 353.526 207.434C355.98 201.366 358.907 194.991 360.853 190.977L359.327 190.237C357.369 194.276 354.426 200.687 351.954 206.799C350.718 209.854 349.596 212.846 348.773 215.435C348.721 215.598 348.67 215.76 348.621 215.921C348.182 208.41 347.399 200.899 346.184 193.839L346.205 193.839C346.372 181.124 350.385 168.779 355.362 158.492C360.339 148.206 366.253 140.032 370.156 135.672L368.91 134.498C364.896 138.98 358.892 147.29 353.846 157.72C349.638 166.417 346.078 176.626 344.911 187.349C343.828 182.473 342.504 177.906 340.905 173.82C337.259 164.509 336.483 153.084 337.021 142.53C337.559 131.988 339.403 122.4 340.933 116.814L339.298 116.366Z" fill="#71A233"/>
<path d="M320.516 187.045C320.516 193.131 315.582 198.065 309.496 198.065C303.41 198.065 298.476 193.131 298.476 187.045C298.476 180.958 303.41 176.024 309.496 176.024C315.582 176.024 320.516 180.958 320.516 187.045Z" fill="#FFC741"/>
<path d="M318.361 81.906C322.134 78.4303 326.15 79.9633 327.686 81.1642C331.247 84.5975 332.031 87.999 331.978 89.2706C332.384 85.2085 334.542 77.2329 339.925 77.8263C345.308 78.4197 346.795 85.8443 346.866 89.4825C347.59 88.0696 349.791 84.4174 352.8 81.1113C355.809 77.8051 358.363 79.1332 359.264 80.2105C360.659 81.5528 363.216 86.5261 362.284 95.6815C361.351 104.837 357.939 110.305 356.35 111.894C353.771 114.579 345.933 119.45 335.21 117.457C324.486 115.465 319.509 107.267 318.361 103.417C316.789 97.6949 314.589 85.3816 318.361 81.906Z" fill="#FFC741"/>
<path d="M373.523 98.9506C378.019 98.5327 380.01 101.75 380.444 103.41C381.103 107.714 379.835 110.512 379.119 111.374C381.572 108.748 387.341 104.32 390.791 107.609C394.24 110.898 391.317 116.888 389.424 119.471C390.685 118.869 394.175 117.488 398.046 116.782C401.917 116.075 402.994 118.368 403.049 119.603C403.309 121.287 402.443 126.132 396.903 132.041C391.362 137.949 386.055 139.953 384.094 140.217C380.857 140.719 372.772 139.942 366.331 132.823C359.891 125.703 360.786 117.31 362.038 114.003C363.994 109.159 369.028 99.3686 373.523 98.9506Z" fill="#FFC741"/>
<path d="M358.645 215.582C360.637 198.861 376.55 191.405 384.257 189.767C386.857 189.31 387.478 195.823 387.464 199.137C387.672 211.545 378.208 220.319 373.449 223.156C369.761 224.971 361.96 228.225 360.264 226.717C358.568 225.209 358.478 218.665 358.645 215.582Z" fill="#6DA032"/>
<path fill-rule="evenodd" clip-rule="evenodd" d="M383.305 193.699C383.519 193.907 383.523 194.249 383.314 194.462C380.265 197.583 375.588 202.787 371.48 208.248C369.427 210.978 367.521 213.765 366.033 216.382C364.541 219.006 363.489 221.425 363.111 223.426C363.056 223.719 362.773 223.912 362.48 223.856C362.187 223.801 361.995 223.519 362.05 223.226C362.461 221.051 363.581 218.51 365.095 215.848C366.613 213.178 368.547 210.351 370.617 207.599C374.758 202.094 379.466 196.854 382.542 193.708C382.75 193.494 383.092 193.491 383.305 193.699Z" fill="#BBBF3F"/>
<path d="M368.321 189.004C382.206 175.508 380.994 163.206 378.653 158.743C378.287 157.027 374.046 157.892 371.97 158.539C359.529 162.165 355.949 176.707 355.714 183.524C355.919 185.335 357.01 189.331 359.742 190.829C362.473 192.328 366.599 190.237 368.321 189.004Z" fill="#6DA032"/>
<path fill-rule="evenodd" clip-rule="evenodd" d="M373.435 164.307C373.111 164.11 372.688 164.212 372.491 164.536C370.752 167.388 368.103 171.833 365.809 175.904C364.662 177.939 363.6 179.886 362.784 181.495C361.982 183.076 361.378 184.407 361.196 185.172C361.109 185.541 361.337 185.912 361.707 185.999C362.076 186.087 362.446 185.858 362.534 185.489C362.671 184.912 363.192 183.73 364.01 182.117C364.813 180.533 365.864 178.606 367.006 176.579C369.291 172.526 371.931 168.094 373.664 165.252C373.862 164.928 373.759 164.505 373.435 164.307Z" fill="#BBBF3F"/>
<path d="M408.269 238.922C415.047 248.268 412.374 257.693 410.19 261.238C408.764 261.142 403.031 256.956 397.324 251.489C391.618 246.022 392.496 233.996 393.427 231.181C394.172 228.929 395.083 227.966 395.446 227.766C396.896 227.591 401.492 229.577 408.269 238.922Z" fill="#6DA032"/>
<path fill-rule="evenodd" clip-rule="evenodd" d="M397.464 232.589C397.24 232.734 397.176 233.034 397.322 233.258C399.119 236.026 401.853 240.578 404.205 245.228C405.38 247.553 406.457 249.896 407.274 252.048C408.093 254.207 408.638 256.145 408.771 257.67C408.795 257.936 409.029 258.133 409.295 258.11C409.561 258.087 409.758 257.852 409.735 257.586C409.591 255.929 409.008 253.893 408.178 251.705C407.346 249.51 406.253 247.135 405.068 244.792C402.698 240.105 399.946 235.522 398.133 232.731C397.987 232.507 397.688 232.443 397.464 232.589Z" fill="#BBBF3F"/>
<path fill-rule="evenodd" clip-rule="evenodd" d="M409.309 260.52C416.612 239.336 429.159 226.096 434.615 222.072L435.621 223.437C430.445 227.254 418.104 240.21 410.911 261.072L409.309 260.52Z" fill="#71A233"/>
<path d="M449.9 217.829C449.9 223.008 445.702 227.207 440.522 227.207C435.343 227.207 431.145 223.008 431.145 217.829C431.145 212.65 435.343 208.451 440.522 208.451C445.702 208.451 449.9 212.65 449.9 217.829Z" fill="#FFC741"/>
<path d="M421.71 159.055C428.544 158.963 430.711 149.718 430.94 145.084C430.94 154.357 435.951 158.262 438.456 159.056C432.442 159.056 430.943 171.508 430.94 177.885C430.94 177.936 430.94 177.988 430.94 178.039C430.94 177.988 430.94 177.937 430.94 177.885C430.898 162.844 424.843 159.075 421.71 159.055C421.676 159.055 421.642 159.056 421.607 159.056C421.641 159.055 421.676 159.055 421.71 159.055Z" fill="#FFE4A3"/>
<path d="M420.761 176.026C420.761 177.138 419.86 178.039 418.748 178.039C417.636 178.039 416.734 177.138 416.734 176.026C416.734 174.914 417.636 174.013 418.748 174.013C419.86 174.013 420.761 174.914 420.761 176.026Z" fill="#FFE4A3"/>
<path d="M281.84 100.101C281.84 101.476 280.725 102.591 279.35 102.591C277.974 102.591 276.859 101.476 276.859 100.101C276.859 98.7252 277.974 97.6104 279.35 97.6104C280.725 97.6104 281.84 98.7252 281.84 100.101Z" fill="#FFE4A3"/>
<path d="M285.293 234.634C285.293 235.804 284.344 236.753 283.174 236.753C282.004 236.753 281.055 235.804 281.055 234.634C281.055 233.463 282.004 232.515 283.174 232.515C284.344 232.515 285.293 233.463 285.293 234.634Z" fill="#FFE4A3"/>
<path fill-rule="evenodd" clip-rule="evenodd" d="M239.492 190.86C239.201 190.86 238.966 191.096 238.966 191.386V197.389L235.712 194.135C235.507 193.93 235.174 193.93 234.969 194.135C234.764 194.341 234.764 194.674 234.969 194.879L238.222 198.132H233.621C233.331 198.132 233.096 198.368 233.096 198.658C233.096 198.948 233.331 199.184 233.621 199.184H238.198L234.957 202.425C234.752 202.63 234.752 202.963 234.957 203.168C235.162 203.374 235.495 203.374 235.7 203.168L238.966 199.903V206.018C238.966 206.308 239.201 206.543 239.492 206.543C239.782 206.543 240.017 206.308 240.017 206.018V199.927L243.271 203.181C243.476 203.386 243.809 203.386 244.014 203.181C244.219 202.975 244.219 202.642 244.014 202.437L240.761 199.184H245.362C245.652 199.184 245.887 198.948 245.887 198.658C245.887 198.368 245.652 198.132 245.362 198.132H240.736L244.002 194.867C244.207 194.661 244.207 194.329 244.002 194.123C243.797 193.918 243.464 193.918 243.258 194.123L240.017 197.365V191.386C240.017 191.096 239.782 190.86 239.492 190.86Z" fill="#FFE4A3"/>
<path d="M260.409 103.47C260.409 102.984 260.803 102.59 261.289 102.59C261.775 102.59 262.169 102.984 262.169 103.47V113.276C262.169 113.762 261.775 114.156 261.289 114.156C260.803 114.156 260.409 113.762 260.409 113.276V103.47Z" fill="#FFE4A3"/>
<path d="M258.524 115.163C259.01 115.163 259.404 115.557 259.404 116.043C259.404 116.529 259.01 116.923 258.524 116.923L253.579 116.923C253.093 116.923 252.699 116.529 252.699 116.043C252.699 115.557 253.093 115.163 253.579 115.163L258.524 115.163Z" fill="#FFE4A3"/>
<path d="M269.001 115.163C269.487 115.163 269.881 115.557 269.881 116.043C269.881 116.529 269.487 116.923 269.001 116.923L264.056 116.923C263.57 116.923 263.176 116.529 263.176 116.043C263.176 115.557 263.57 115.163 264.056 115.163L269.001 115.163Z" fill="#FFE4A3"/>
<path d="M260.409 118.809C260.409 118.323 260.803 117.929 261.289 117.929C261.775 117.929 262.169 118.323 262.169 118.809V131.381C262.169 131.867 261.775 132.261 261.289 132.261C260.803 132.261 260.409 131.867 260.409 131.381V118.809Z" fill="#FFE4A3"/>
<path d="M428.114 98.6715C437.096 98.6715 441.042 79.858 441.893 70.4512C441.893 88.4034 451.078 96.9715 455.671 99.0115C444.648 99.0115 441.893 117.938 441.893 127.402C441.893 107.546 432.707 99.9749 428.114 98.6715Z" fill="#FFB910"/>
<path d="M261.855 162.887C268.342 162.887 271.192 149.232 271.807 142.404C271.807 155.434 278.441 161.653 281.758 163.134C273.797 163.134 271.807 176.871 271.807 183.739C271.807 169.328 265.172 163.833 261.855 162.887Z" fill="#FFB70C"/>
<path d="M-39.4401 361.962C-41.7263 360.57 -49.0075 361.382 -52.3623 361.962V389.546H693.399V353.389C691.08 353.803 686.118 354.929 684.826 356.122C683.533 357.315 660.431 357.033 649.041 356.743C646.887 356.743 642.257 356.619 640.965 356.122C639.349 355.501 622.824 355.501 621.457 356.743C620.09 357.986 606.174 358.732 589.897 356.743C573.62 354.755 572.129 355.004 562.562 354.88C554.908 354.78 545.622 358.483 541.936 360.347C537.131 361.009 526.827 361.937 524.043 360.347C521.26 358.756 512.364 359.684 508.263 360.347C504.494 361.506 495.764 363.528 490.992 362.335C485.028 360.844 481.176 361.714 471.36 362.335C463.508 362.832 453.178 361.631 448.995 360.968C444.481 360.015 434.507 358.558 430.73 360.347C426.953 362.136 408.613 362.418 399.916 362.335L171.913 365.814H143.956C129.419 365.524 98.3555 365.118 90.4034 365.814C82.4513 366.51 70.6059 363.867 65.6772 362.459C59.4232 360.72 45.275 357.737 38.7145 359.726C30.5139 362.211 25.668 360.098 22.0647 363.205C19.1821 365.69 7.61007 365.731 2.18439 365.441C0.362022 365.4 -4.84828 364.894 -11.1106 363.205C-17.3729 361.515 -24.7369 361.672 -27.6361 361.962C-30.6182 362.542 -37.1538 363.354 -39.4401 361.962Z" fill="#7D503B"/>
</g>
<defs>
<linearGradient id="paint0_linear" x1="292.5" y1="0" x2="292.5" y2="390" gradientUnits="userSpaceOnUse">
<stop stop-color="#FFFAEC" stop-opacity="0.69"/>
<stop offset="1" stop-color="#FFEAAF"/>
</linearGradient>
<clipPath id="clip0">
<rect width="585" height="390" fill="white" transform="translate(0.561523)"/>
</clipPath>
</defs>
</svg>
